<svg width="165" height="48" viewBox="0 0 165 48" fill="none" xmlns="http://www.w3.org/2000/svg">
<path d="M89.0468 18.5597H92.3787V27.657C92.3787 32.2747 89.7859 34.9233 85.269 34.9233C80.799 34.9233 78.2297 32.3208 78.2297 27.7837V18.5712H81.5616V27.68C81.5616 30.3747 82.9108 31.8141 85.3159 31.8141C87.721 31.8141 89.0468 30.4092 89.0468 27.7952V18.5597ZM70.2752 25.0545H62.7431V18.5597H59.4111V34.6815H62.7431V28.1291H70.2635V34.6815H73.5954V18.5597H70.2635V25.0545H70.2752ZM153.715 18.5597V34.6584H157V18.5597H153.715ZM140.633 27.7376H146.699V24.8011H140.633V21.4962H149.433V18.5712H137.348V34.67H149.749V31.7335H140.633V27.7376ZM127.564 29.6377L123.833 18.5482H121.111L117.38 29.6377L113.755 18.5597H110.212L115.937 34.67H118.694L122.425 24.0872L126.156 34.67H128.936L134.65 18.5597H131.189L127.564 29.6377ZM104.287 18.6519L111.455 34.67H107.959L106.481 31.3189H98.9605L98.8549 31.5492L97.4705 34.67H94.0682L101.307 18.5597H104.217L104.287 18.6519ZM105.085 28.0255L102.715 22.6247L100.357 28.0255L100.192 28.394H105.237L105.085 28.0255Z" fill="#24272A"/>
<path d="M26.6078 32.9657C26.6548 32.9311 26.6665 32.862 26.643 32.8044C23.408 25.9796 19.3721 19.5487 14.6175 13.6426C14.6175 13.6426 10.8397 17.1664 11.1095 20.7016C11.1728 21.5167 11.3991 22.3115 11.7755 23.0406C12.152 23.7697 12.6712 24.4189 13.3035 24.9508C16.6002 28.1061 24.5782 32.0905 26.4319 33.0002C26.4905 33.0232 26.5609 33.0117 26.6078 32.9657ZM25.376 35.6603C25.3525 35.5912 25.2821 35.5451 25.2 35.5451L11.9191 35.9942C13.3621 38.5161 15.7907 40.4738 18.3131 39.875C20.0612 39.4489 24.0033 36.7427 25.3056 35.8215C25.4112 35.7409 25.376 35.6718 25.376 35.6603ZM25.5754 34.4972C25.6458 34.3936 25.5285 34.3015 25.5285 34.3015C19.6975 30.4322 8.38767 24.4902 8.38767 24.4902C8.0128 25.618 7.90793 26.8154 8.08121 27.9895C8.2545 29.1635 8.70127 30.2825 9.3868 31.2595C10.0723 32.2365 10.9782 33.0452 12.0339 33.6227C13.0896 34.2002 14.2668 34.531 15.4739 34.5893C15.6734 34.6239 23.3697 34.5893 25.4346 34.5778C25.4933 34.5663 25.5402 34.5433 25.5754 34.4972ZM26.4553 8.01152C25.8804 8.05758 24.3201 8.41456 24.3201 8.41456C20.8004 9.30125 19.9674 12.445 19.9674 12.445C19.3221 14.4141 19.9791 16.5906 19.9791 16.5906C21.1523 21.7035 26.9246 30.1213 28.1682 31.8832C28.2504 31.9753 28.3207 31.9408 28.3207 31.9408C28.3911 31.9177 28.4498 31.8602 28.4498 31.7796C30.3739 12.9862 26.4553 8.01152 26.4553 8.01152ZM30.8549 31.9177C30.9253 31.9408 31.0074 31.9177 31.0426 31.8486C32.3214 30.0407 38.0585 21.6689 39.2317 16.5791C39.2317 16.5791 39.8653 14.1147 39.2552 12.4335C39.2552 12.4335 38.387 9.24368 34.8673 8.40304C34.8673 8.40304 33.8584 8.1497 32.779 8C32.779 8 28.837 12.9747 30.7611 31.768C30.7493 31.8371 30.7963 31.8947 30.8549 31.9177ZM33.9992 35.5566C33.9679 35.5628 33.9382 35.5752 33.912 35.593C33.8858 35.6109 33.8635 35.6337 33.8466 35.6603C33.8349 35.7294 33.8466 35.787 33.8936 35.833C35.1606 36.7312 39.0206 39.3798 40.8742 39.8865C40.8742 39.8865 44.3118 41.038 47.2918 36.0058L33.9992 35.5566ZM50.8349 24.4672C50.8349 24.4672 39.5485 30.4207 33.7058 34.2899C33.6472 34.336 33.612 34.4051 33.6355 34.4742C33.6355 34.4742 33.6941 34.5778 33.7762 34.5778C35.8646 34.5778 43.7721 34.5893 43.9833 34.5548C44.7694 34.4972 45.5437 34.3245 46.2711 34.0366C46.2711 34.0366 49.0868 33.1614 50.5416 30.0177C50.5416 30.0177 51.8439 27.4612 50.8349 24.4672ZM32.6382 32.9657C32.6851 33.0002 32.7555 33.0117 32.8142 32.9772C34.7148 32.0444 42.6341 28.0946 45.9074 24.9508C45.9074 24.9508 47.984 23.3156 48.0896 20.6786C48.3242 17.0282 44.5816 13.6426 44.5816 13.6426C44.5816 13.6426 37.6596 21.8762 32.5796 32.7584C32.5714 32.795 32.5725 32.833 32.5827 32.8691C32.5929 32.9053 32.612 32.9384 32.6382 32.9657Z" fill="#CE0E2D"/>
</svg>
