<svg width="151" height="48" viewBox="0 0 151 48" fill="none" xmlns="http://www.w3.org/2000/svg">
<path fill-rule="evenodd" clip-rule="evenodd" d="M11.6605 29.9924L4.96996 23.2712C3.83309 22.129 1.98988 22.129 0.852648 23.2712C-0.284216 24.4132 -0.284216 26.2648 0.852648 27.4072L9.60185 36.1967C10.7387 37.3387 12.5824 37.3387 13.7192 36.1967L21.9542 27.9235L17.8372 23.7873L11.6605 29.9924Z" fill="#16B8A2"/>
<path fill-rule="evenodd" clip-rule="evenodd" d="M36.879 17.0678L24.0136 29.9922L11.1467 17.0663C10.0095 15.9239 8.16627 15.9239 7.0294 17.0663C5.89254 18.2084 5.89254 20.0601 7.0294 21.2025L21.9549 36.1965C23.0918 37.3386 24.9351 37.3386 26.0722 36.1965L40.9964 21.204C42.1332 20.0615 42.1332 18.2099 40.9964 17.0678C39.8591 15.9257 38.0158 15.9257 36.879 17.0678Z" fill="#FFB41F"/>
<path fill-rule="evenodd" clip-rule="evenodd" d="M47.1726 27.4087L38.4248 36.1966C37.288 37.3387 35.4448 37.3387 34.3079 36.1966L13.2057 14.9976C12.0688 13.8555 12.0688 12.0038 13.2057 10.8617C14.3429 9.71927 16.1861 9.71927 17.3229 10.8617L36.3662 29.9923L43.0553 23.2725C44.1925 22.1305 46.0357 22.1305 47.1726 23.2725C48.3094 24.415 48.3094 26.2667 47.1726 27.4087Z" fill="#F56358"/>
<path fill-rule="evenodd" clip-rule="evenodd" d="M34.8196 10.863C33.6827 9.72089 31.8396 9.72089 30.7023 10.863L17.8369 23.7875L21.9543 27.9237L34.8196 14.9992C35.9566 13.8567 35.9566 12.0051 34.8196 10.863Z" fill="#16B8A2"/>
<path fill-rule="evenodd" clip-rule="evenodd" d="M63.0967 12.8829H59.5166V34.0096H72.6342V30.8191H63.0967V12.8829ZM80.3826 19.2353C82.5594 19.2353 84.02 20.1263 84.822 21.2186L84.9938 19.5227H88.0871V34.0096H84.9938L84.822 32.3138C84.02 33.406 82.5594 34.2971 80.3826 34.2971C76.4587 34.2971 73.7951 31.1065 73.7951 26.7662C73.7951 22.3971 76.4587 19.2353 80.3826 19.2353ZM81.1273 22.2821C78.8932 22.2821 77.2893 24.0355 77.2893 26.7662C77.2893 29.4969 78.8932 31.2503 81.1273 31.2503C82.8457 31.2503 83.8769 30.3304 84.6501 29.0944V24.4379C83.8769 23.202 82.8457 22.2821 81.1273 22.2821ZM96.752 14.665H93.3151V19.5227H90.5941V22.4546H93.3151V28.8933C93.3151 32.4 95.4058 34.2971 98.6996 34.2971C100.132 34.2971 101.191 33.8947 101.907 33.4348L100.991 30.7329C100.561 30.9916 99.9311 31.1927 99.0146 31.1927C97.6684 31.1927 96.752 30.3304 96.752 28.8645V22.4546H101.105V19.5227H96.752V14.665ZM108.596 14.665H105.159V19.5227H102.438V22.4546H105.159V28.8933C105.159 32.4 107.25 34.2971 110.544 34.2971C111.976 34.2971 113.035 33.8947 113.751 33.4348L112.835 30.7329C112.405 30.9916 111.775 31.1927 110.859 31.1927C109.512 31.1927 108.596 30.3304 108.596 28.8645V22.4546H112.95V19.5227H108.596V14.665ZM119.495 19.5227H116.058V34.0096H119.495V19.5227ZM117.776 12.7679C116.573 12.7679 115.657 13.6589 115.657 14.8949C115.657 16.1309 116.573 17.022 117.776 17.022C119.008 17.022 119.924 16.1309 119.924 14.8949C119.924 13.6589 119.008 12.7679 117.776 12.7679ZM129.879 19.2353C125.439 19.2353 122.489 22.3971 122.489 26.7662C122.489 31.1065 125.468 34.2971 129.907 34.2971C132.513 34.2971 134.489 33.1186 135.778 31.1065L133.315 29.1807C132.627 30.3304 131.511 31.279 129.936 31.279C127.387 31.279 125.983 29.2957 125.983 26.7662C125.983 24.2079 127.329 22.2534 129.907 22.2534C131.511 22.2534 132.57 23.1731 133.229 24.323L135.721 22.4259C134.432 20.4138 132.513 19.2353 129.879 19.2353ZM144.185 19.2353C148.625 19.2353 150.802 22.5696 150.802 26.6225V27.8297H140.605C140.691 30.1292 142.066 31.3939 144.471 31.3939C146.161 31.3939 147.393 30.6466 148.052 29.7269L150.429 31.6814C148.996 33.406 147.107 34.2971 144.443 34.2971C139.976 34.2971 137.111 31.1353 137.111 26.7949C137.111 22.4259 140.033 19.2353 144.185 19.2353ZM144.128 21.9947C142.095 21.9947 140.719 23.3457 140.605 25.3578H147.422C147.336 23.3744 146.19 21.9947 144.128 21.9947Z" fill="#0E0E29"/>
</svg>
