<svg width="53" height="61" viewBox="0 0 53 61" fill="none" xmlns="http://www.w3.org/2000/svg">
<path d="M19.7401 44.5929L17.1988 51.1915M10.017 33.7168L3.91885 37.2962M8.34465 18.9895L1.52588 17.1175M19.0909 8.84871L16.4507 2.28904M34.1568 8.07232L36.0333 1.25478M45.2286 33.2782L51.6108 36.3226M50.5781 16.6656L43.7891 18.6428M32.7836 53.026L41.9235 48.9687L42.6325 53.0304L35.7775 56.0734M20.1612 11.0359C25.6109 9.34605 37.626 8.97231 42.0882 20.996C43.1189 24.5502 43.7888 32.7138 38.2228 36.9352C40.6231 43.1637 44.9157 55.9556 42.8844 57.295C40.3453 58.9692 38.7714 59.1208 38.3144 59.3236C37.8574 59.5265 30.3983 51.3497 26.7979 42.0069C23.4303 42.2254 15.6704 40.6008 11.572 32.3543C9.89855 28.1738 9.27353 18.0572 20.1612 11.0359Z" stroke="#2E90FA" stroke-width="2" stroke-linecap="round"/>
</svg>
