<svg width="54" height="61" viewBox="0 0 54 61" fill="none" xmlns="http://www.w3.org/2000/svg">
<path d="M21.5074 45.637L19.3447 52.3692M11.1826 35.3303L5.29741 39.2501M8.67697 20.7217L1.76294 19.2397M18.8303 9.98729L15.822 3.58806M33.8279 8.357L35.3143 1.44394M46.3125 32.8938L52.8572 35.5711M50.7104 16.0043L44.0446 18.3637M35.0085 53.3162L43.9033 48.7466L44.8417 52.7615L38.1705 56.1887M20.38 12.4484C25.7251 10.4519 37.6996 9.39681 42.8371 21.1478C44.0678 24.6378 45.2 32.7503 39.8826 37.2808C42.6325 43.363 47.6443 55.8906 45.6923 57.3431C43.2523 59.1587 41.6896 59.3994 41.2449 59.6279C40.8001 59.8564 32.8889 52.1161 28.764 42.9927C25.4142 43.402 17.5746 42.2205 13.0148 34.22C11.1067 30.1411 9.90846 20.0764 20.38 12.4484Z" stroke="#B266F9" stroke-width="2" stroke-linecap="round"/>
</svg>
