<svg width="53" height="60" viewBox="0 0 53 60" fill="none" xmlns="http://www.w3.org/2000/svg">
<path d="M7.7404 32.9398L1.03809 35.1935M9.91071 18.5135L3.26357 16.102M20.1833 7.82876L17.2738 1.384M34.8483 9.63255L38.2144 3.4141M45.0593 20.7376L51.5059 17.8323M32.716 45.3458L34.4441 52.2024M48.9206 38.8647L43.0663 34.8989M9.56975 48.364L18.5257 52.8126L15.8507 55.9501L9.13369 52.6137M33.8471 11.8522C38.6256 14.9702 46.5799 23.983 40.1691 35.0908C38.0902 38.1522 32.2318 43.877 25.4299 42.2849C22.1656 48.1073 15.0552 59.5747 12.7278 58.8652C9.81859 57.9784 8.69763 56.8633 8.24983 56.6409C7.80203 56.4185 9.33851 45.4577 14.235 36.7241C11.9179 34.2705 8.21742 27.259 11.9519 18.8415C14.1031 14.8855 21.4937 7.94914 33.8471 11.8522Z" stroke="#F97066" stroke-width="2" stroke-linecap="round"/>
</svg>
